<mxfile host="app.diagrams.net" modified="2024-03-18T04:31:07.893Z" agent="Mozilla/5.0 (Windows NT 10.0; Win64; x64) AppleWebKit/537.36 (KHTML, like Gecko) Chrome/122.0.0.0 Safari/537.36 Edg/122.0.0.0" etag="5-7OkPjUguWyaZ3bM5sn" version="24.0.7" type="device">
  <diagram name="Page-1" id="zpgvi00k8cMSznXeX_7v">
    <mxGraphModel dx="1123" dy="721" grid="1" gridSize="10" guides="1" tooltips="1" connect="1" arrows="1" fold="1" page="1" pageScale="1" pageWidth="850" pageHeight="1100" math="0" shadow="0">
      <root>
        <mxCell id="0" />
        <mxCell id="1" parent="0" />
        <mxCell id="p2soG9ANZCDUTR2Bre6W-1" value="Process Business Approve Laporan Temuan Patrol" style="swimlane;html=1;childLayout=stackLayout;resizeParent=1;resizeParentMax=0;startSize=20;horizontal=0;horizontalStack=1;whiteSpace=wrap;" parent="1" vertex="1">
          <mxGeometry x="90" y="40" width="650" height="890" as="geometry">
            <mxRectangle x="210" y="20" width="40" height="190" as="alternateBounds" />
          </mxGeometry>
        </mxCell>
        <mxCell id="p2soG9ANZCDUTR2Bre6W-2" value="Dept Head PIC" style="swimlane;html=1;startSize=20;" parent="p2soG9ANZCDUTR2Bre6W-1" vertex="1">
          <mxGeometry x="20" width="630" height="890" as="geometry">
            <mxRectangle x="20" width="40" height="480" as="alternateBounds" />
          </mxGeometry>
        </mxCell>
        <mxCell id="p2soG9ANZCDUTR2Bre6W-3" style="edgeStyle=orthogonalEdgeStyle;rounded=0;orthogonalLoop=1;jettySize=auto;html=1;" parent="p2soG9ANZCDUTR2Bre6W-2" source="p2soG9ANZCDUTR2Bre6W-4" target="p2soG9ANZCDUTR2Bre6W-6" edge="1">
          <mxGeometry relative="1" as="geometry" />
        </mxCell>
        <mxCell id="p2soG9ANZCDUTR2Bre6W-4" value="Login" style="points=[[0.25,0,0],[0.5,0,0],[0.75,0,0],[1,0.25,0],[1,0.5,0],[1,0.75,0],[0.75,1,0],[0.5,1,0],[0.25,1,0],[0,0.75,0],[0,0.5,0],[0,0.25,0]];shape=mxgraph.bpmn.task;whiteSpace=wrap;rectStyle=rounded;size=10;html=1;container=1;expand=0;collapsible=0;taskMarker=abstract;" parent="p2soG9ANZCDUTR2Bre6W-2" vertex="1">
          <mxGeometry x="258.75" y="90" width="85" height="30" as="geometry" />
        </mxCell>
        <mxCell id="p2soG9ANZCDUTR2Bre6W-5" style="edgeStyle=orthogonalEdgeStyle;rounded=0;orthogonalLoop=1;jettySize=auto;html=1;" parent="p2soG9ANZCDUTR2Bre6W-2" source="p2soG9ANZCDUTR2Bre6W-6" target="p2soG9ANZCDUTR2Bre6W-8" edge="1">
          <mxGeometry relative="1" as="geometry" />
        </mxCell>
        <mxCell id="p2soG9ANZCDUTR2Bre6W-6" value="Membuka halaman Laporan Patrol" style="points=[[0.25,0,0],[0.5,0,0],[0.75,0,0],[1,0.25,0],[1,0.5,0],[1,0.75,0],[0.75,1,0],[0.5,1,0],[0.25,1,0],[0,0.75,0],[0,0.5,0],[0,0.25,0]];shape=mxgraph.bpmn.task;whiteSpace=wrap;rectStyle=rounded;size=10;html=1;container=1;expand=0;collapsible=0;taskMarker=abstract;" parent="p2soG9ANZCDUTR2Bre6W-2" vertex="1">
          <mxGeometry x="243.75" y="140" width="115" height="60" as="geometry" />
        </mxCell>
        <mxCell id="p2soG9ANZCDUTR2Bre6W-7" style="edgeStyle=orthogonalEdgeStyle;rounded=0;orthogonalLoop=1;jettySize=auto;html=1;" parent="p2soG9ANZCDUTR2Bre6W-2" source="p2soG9ANZCDUTR2Bre6W-8" target="p2soG9ANZCDUTR2Bre6W-12" edge="1">
          <mxGeometry relative="1" as="geometry" />
        </mxCell>
        <mxCell id="p2soG9ANZCDUTR2Bre6W-8" value="Menekan tombol see detail pada jadwal laporan patrol" style="points=[[0.25,0,0],[0.5,0,0],[0.75,0,0],[1,0.25,0],[1,0.5,0],[1,0.75,0],[0.75,1,0],[0.5,1,0],[0.25,1,0],[0,0.75,0],[0,0.5,0],[0,0.25,0]];shape=mxgraph.bpmn.task;whiteSpace=wrap;rectStyle=rounded;size=10;html=1;container=1;expand=0;collapsible=0;taskMarker=abstract;" parent="p2soG9ANZCDUTR2Bre6W-2" vertex="1">
          <mxGeometry x="240" y="230" width="122.5" height="60" as="geometry" />
        </mxCell>
        <mxCell id="p2soG9ANZCDUTR2Bre6W-9" style="edgeStyle=orthogonalEdgeStyle;rounded=0;orthogonalLoop=1;jettySize=auto;html=1;" parent="p2soG9ANZCDUTR2Bre6W-2" source="p2soG9ANZCDUTR2Bre6W-10" target="p2soG9ANZCDUTR2Bre6W-4" edge="1">
          <mxGeometry relative="1" as="geometry" />
        </mxCell>
        <mxCell id="p2soG9ANZCDUTR2Bre6W-10" value="" style="points=[[0.145,0.145,0],[0.5,0,0],[0.855,0.145,0],[1,0.5,0],[0.855,0.855,0],[0.5,1,0],[0.145,0.855,0],[0,0.5,0]];shape=mxgraph.bpmn.event;html=1;verticalLabelPosition=bottom;labelBackgroundColor=#ffffff;verticalAlign=top;align=center;perimeter=ellipsePerimeter;outlineConnect=0;aspect=fixed;outline=standard;symbol=general;fillColor=#00FF00;strokeColor=#2D7600;fontColor=#ffffff;" parent="p2soG9ANZCDUTR2Bre6W-2" vertex="1">
          <mxGeometry x="286.25" y="40" width="30" height="30" as="geometry" />
        </mxCell>
        <mxCell id="p2soG9ANZCDUTR2Bre6W-12" value="Menekan tombol see detail pada laporan temuan" style="points=[[0.25,0,0],[0.5,0,0],[0.75,0,0],[1,0.25,0],[1,0.5,0],[1,0.75,0],[0.75,1,0],[0.5,1,0],[0.25,1,0],[0,0.75,0],[0,0.5,0],[0,0.25,0]];shape=mxgraph.bpmn.task;whiteSpace=wrap;rectStyle=rounded;size=10;html=1;container=1;expand=0;collapsible=0;taskMarker=abstract;" parent="p2soG9ANZCDUTR2Bre6W-2" vertex="1">
          <mxGeometry x="241.25" y="320" width="120" height="60" as="geometry" />
        </mxCell>
        <mxCell id="p2soG9ANZCDUTR2Bre6W-16" style="edgeStyle=orthogonalEdgeStyle;rounded=0;orthogonalLoop=1;jettySize=auto;html=1;" parent="p2soG9ANZCDUTR2Bre6W-2" source="p2soG9ANZCDUTR2Bre6W-17" target="p2soG9ANZCDUTR2Bre6W-12" edge="1">
          <mxGeometry relative="1" as="geometry" />
        </mxCell>
        <mxCell id="p2soG9ANZCDUTR2Bre6W-17" value="Temuan harus memiliki indikator proses lingkaran penuh berwarna kuning" style="points=[[0.25,0,0],[0.5,0,0],[0.75,0,0],[1,0.25,0],[1,0.5,0],[1,0.75,0],[0.75,1,0],[0.5,1,0],[0.25,1,0],[0,0.75,0],[0,0.5,0],[0,0.25,0]];rounded=1;dashed=1;dashPattern=5 2 1 2;labelPosition=center;verticalLabelPosition=middle;align=center;verticalAlign=middle;fontSize=12;html=1;whiteSpace=wrap;" parent="p2soG9ANZCDUTR2Bre6W-2" vertex="1">
          <mxGeometry x="391.25" y="320" width="148.75" height="60" as="geometry" />
        </mxCell>
        <mxCell id="vs9dShwJ4QM-kIbL_MG4-1" value="" style="points=[[0.145,0.145,0],[0.5,0,0],[0.855,0.145,0],[1,0.5,0],[0.855,0.855,0],[0.5,1,0],[0.145,0.855,0],[0,0.5,0]];shape=mxgraph.bpmn.event;html=1;verticalLabelPosition=bottom;labelBackgroundColor=#ffffff;verticalAlign=top;align=center;perimeter=ellipsePerimeter;outlineConnect=0;aspect=fixed;outline=end;symbol=terminate;fillColor=#f8cecc;strokeColor=#b85450;gradientColor=#ea6b66;" vertex="1" parent="p2soG9ANZCDUTR2Bre6W-2">
          <mxGeometry x="284.69000000000005" y="840" width="30" height="30" as="geometry" />
        </mxCell>
        <mxCell id="vs9dShwJ4QM-kIbL_MG4-2" style="edgeStyle=orthogonalEdgeStyle;rounded=0;orthogonalLoop=1;jettySize=auto;html=1;" edge="1" parent="p2soG9ANZCDUTR2Bre6W-2" source="vs9dShwJ4QM-kIbL_MG4-13" target="vs9dShwJ4QM-kIbL_MG4-1">
          <mxGeometry relative="1" as="geometry">
            <mxPoint x="299.69000000000005" y="519.9999999999998" as="targetPoint" />
            <Array as="points">
              <mxPoint x="148.44000000000005" y="770" />
              <mxPoint x="299.44000000000005" y="770" />
            </Array>
          </mxGeometry>
        </mxCell>
        <mxCell id="vs9dShwJ4QM-kIbL_MG4-3" style="edgeStyle=orthogonalEdgeStyle;rounded=0;orthogonalLoop=1;jettySize=auto;html=1;" edge="1" parent="p2soG9ANZCDUTR2Bre6W-2" source="vs9dShwJ4QM-kIbL_MG4-4" target="vs9dShwJ4QM-kIbL_MG4-6">
          <mxGeometry relative="1" as="geometry" />
        </mxCell>
        <mxCell id="vs9dShwJ4QM-kIbL_MG4-4" value="Menekan tombol Tolak" style="points=[[0.25,0,0],[0.5,0,0],[0.75,0,0],[1,0.25,0],[1,0.5,0],[1,0.75,0],[0.75,1,0],[0.5,1,0],[0.25,1,0],[0,0.75,0],[0,0.5,0],[0,0.25,0]];shape=mxgraph.bpmn.task;whiteSpace=wrap;rectStyle=rounded;size=10;html=1;container=1;expand=0;collapsible=0;taskMarker=abstract;" vertex="1" parent="p2soG9ANZCDUTR2Bre6W-2">
          <mxGeometry x="404.05999999999995" y="500" width="120" height="60" as="geometry" />
        </mxCell>
        <mxCell id="vs9dShwJ4QM-kIbL_MG4-5" style="edgeStyle=orthogonalEdgeStyle;rounded=0;orthogonalLoop=1;jettySize=auto;html=1;" edge="1" parent="p2soG9ANZCDUTR2Bre6W-2" source="vs9dShwJ4QM-kIbL_MG4-6" target="vs9dShwJ4QM-kIbL_MG4-7">
          <mxGeometry relative="1" as="geometry" />
        </mxCell>
        <mxCell id="vs9dShwJ4QM-kIbL_MG4-6" value="Mengisi form penolakan" style="points=[[0.25,0,0],[0.5,0,0],[0.75,0,0],[1,0.25,0],[1,0.5,0],[1,0.75,0],[0.75,1,0],[0.5,1,0],[0.25,1,0],[0,0.75,0],[0,0.5,0],[0,0.25,0]];shape=mxgraph.bpmn.task;whiteSpace=wrap;rectStyle=rounded;size=10;html=1;container=1;expand=0;collapsible=0;taskMarker=abstract;" vertex="1" parent="p2soG9ANZCDUTR2Bre6W-2">
          <mxGeometry x="404.05999999999995" y="590" width="120" height="60" as="geometry" />
        </mxCell>
        <mxCell id="vs9dShwJ4QM-kIbL_MG4-7" value="Menekan tombol submit" style="points=[[0.25,0,0],[0.5,0,0],[0.75,0,0],[1,0.25,0],[1,0.5,0],[1,0.75,0],[0.75,1,0],[0.5,1,0],[0.25,1,0],[0,0.75,0],[0,0.5,0],[0,0.25,0]];shape=mxgraph.bpmn.task;whiteSpace=wrap;rectStyle=rounded;size=10;html=1;container=1;expand=0;collapsible=0;taskMarker=abstract;" vertex="1" parent="p2soG9ANZCDUTR2Bre6W-2">
          <mxGeometry x="404.05999999999995" y="690" width="120" height="60" as="geometry" />
        </mxCell>
        <mxCell id="vs9dShwJ4QM-kIbL_MG4-8" style="edgeStyle=orthogonalEdgeStyle;rounded=0;orthogonalLoop=1;jettySize=auto;html=1;entryX=0.5;entryY=0;entryDx=0;entryDy=0;entryPerimeter=0;" edge="1" parent="p2soG9ANZCDUTR2Bre6W-2" source="vs9dShwJ4QM-kIbL_MG4-7" target="vs9dShwJ4QM-kIbL_MG4-1">
          <mxGeometry relative="1" as="geometry">
            <Array as="points">
              <mxPoint x="464.44000000000005" y="770" />
              <mxPoint x="299.44000000000005" y="770" />
            </Array>
          </mxGeometry>
        </mxCell>
        <mxCell id="vs9dShwJ4QM-kIbL_MG4-9" value="Approve Laporan?" style="points=[[0.25,0.25,0],[0.5,0,0],[0.75,0.25,0],[1,0.5,0],[0.75,0.75,0],[0.5,1,0],[0.25,0.75,0],[0,0.5,0]];shape=mxgraph.bpmn.gateway2;html=1;verticalLabelPosition=bottom;labelBackgroundColor=#ffffff;verticalAlign=top;align=center;perimeter=rhombusPerimeter;outlineConnect=0;outline=none;symbol=none;gwType=exclusive;" vertex="1" parent="p2soG9ANZCDUTR2Bre6W-2">
          <mxGeometry x="277.82000000000016" y="420" width="43.75" height="40" as="geometry" />
        </mxCell>
        <mxCell id="vs9dShwJ4QM-kIbL_MG4-10" style="edgeStyle=orthogonalEdgeStyle;rounded=0;orthogonalLoop=1;jettySize=auto;html=1;entryX=0.5;entryY=0;entryDx=0;entryDy=0;entryPerimeter=0;" edge="1" parent="p2soG9ANZCDUTR2Bre6W-2" target="vs9dShwJ4QM-kIbL_MG4-9">
          <mxGeometry relative="1" as="geometry">
            <mxPoint x="299.44000000000005" y="380" as="sourcePoint" />
          </mxGeometry>
        </mxCell>
        <mxCell id="vs9dShwJ4QM-kIbL_MG4-11" style="edgeStyle=orthogonalEdgeStyle;rounded=0;orthogonalLoop=1;jettySize=auto;html=1;entryX=0.5;entryY=0;entryDx=0;entryDy=0;entryPerimeter=0;" edge="1" parent="p2soG9ANZCDUTR2Bre6W-2" source="vs9dShwJ4QM-kIbL_MG4-9" target="vs9dShwJ4QM-kIbL_MG4-4">
          <mxGeometry relative="1" as="geometry" />
        </mxCell>
        <mxCell id="vs9dShwJ4QM-kIbL_MG4-12" style="edgeStyle=orthogonalEdgeStyle;rounded=0;orthogonalLoop=1;jettySize=auto;html=1;entryX=0.5;entryY=0;entryDx=0;entryDy=0;entryPerimeter=0;" edge="1" parent="p2soG9ANZCDUTR2Bre6W-2" source="vs9dShwJ4QM-kIbL_MG4-9" target="vs9dShwJ4QM-kIbL_MG4-13">
          <mxGeometry relative="1" as="geometry" />
        </mxCell>
        <mxCell id="vs9dShwJ4QM-kIbL_MG4-13" value="Menekan tombol Verifikasi" style="points=[[0.25,0,0],[0.5,0,0],[0.75,0,0],[1,0.25,0],[1,0.5,0],[1,0.75,0],[0.75,1,0],[0.5,1,0],[0.25,1,0],[0,0.75,0],[0,0.5,0],[0,0.25,0]];shape=mxgraph.bpmn.task;whiteSpace=wrap;rectStyle=rounded;size=10;html=1;container=1;expand=0;collapsible=0;taskMarker=abstract;" vertex="1" parent="p2soG9ANZCDUTR2Bre6W-2">
          <mxGeometry x="83.44000000000005" y="570" width="120" height="60" as="geometry" />
        </mxCell>
        <mxCell id="vs9dShwJ4QM-kIbL_MG4-14" value="Approve" style="text;html=1;align=center;verticalAlign=middle;resizable=0;points=[];autosize=1;strokeColor=none;fillColor=none;" vertex="1" parent="p2soG9ANZCDUTR2Bre6W-2">
          <mxGeometry x="78.44000000000005" y="490" width="70" height="30" as="geometry" />
        </mxCell>
        <mxCell id="vs9dShwJ4QM-kIbL_MG4-15" value="Tolak" style="text;html=1;align=center;verticalAlign=middle;resizable=0;points=[];autosize=1;strokeColor=none;fillColor=none;" vertex="1" parent="p2soG9ANZCDUTR2Bre6W-2">
          <mxGeometry x="457.44000000000005" y="451" width="50" height="30" as="geometry" />
        </mxCell>
      </root>
    </mxGraphModel>
  </diagram>
</mxfile>
